HIERARCHY
ROOT Hips
{
	OFFSET 0.00000 0.00000 0.00000
	CHANNELS 6 Xposition Yposition Zposition Zrotation Yrotation Xrotation 
	JOINT LHipJoint
	{
		OFFSET 0 0 0
		CHANNELS 3 Zrotation Yrotation Xrotation
		JOINT LeftHip
		{
			OFFSET 1.57358 -1.76629 0.73362
			CHANNELS 3 Zrotation Yrotation Xrotation
			JOINT LeftKnee
			{
				OFFSET 2.40600 -6.61045 0.00000
				CHANNELS 3 Zrotation Yrotation Xrotation
				JOINT LeftAnkle
				{
					OFFSET 2.66168 -7.31291 0.00000
					CHANNELS 3 Zrotation Yrotation Xrotation
					JOINT LeftToe
					{
						OFFSET 0.20870 -0.57341 2.12506
						CHANNELS 3 Zrotation Yrotation Xrotation
						End Site
						{
							OFFSET 0.00000 -0.00000 1.10557
						}
					}
				}
			}
		}
	}
	JOINT RHipJoint
	{
		OFFSET 0 0 0
		CHANNELS 3 Zrotation Yrotation Xrotation
		JOINT RightHip
		{
			OFFSET -1.49299 -1.76629 0.73362
			CHANNELS 3 Zrotation Yrotation Xrotation
			JOINT RightKnee
			{
				OFFSET -2.43663 -6.69460 0.00000
				CHANNELS 3 Zrotation Yrotation Xrotation
				JOINT RightAnkle
				{
					OFFSET -2.62959 -7.22474 0.00000
					CHANNELS 3 Zrotation Yrotation Xrotation
					JOINT RightToe
					{
						OFFSET -0.25784 -0.70841 2.21862
						CHANNELS 3 Zrotation Yrotation Xrotation
						End Site
						{
							OFFSET -0.00000 -0.00000 1.16452
						}
					}
				}
			}
		}
	}
	JOINT lowerback
	{
		OFFSET 0 0 0
		CHANNELS 3 Zrotation Yrotation Xrotation
		JOINT Chest
		{
			OFFSET -0.00034 2.12399 -0.25450
			CHANNELS 3 Zrotation Yrotation Xrotation
			JOINT Chest2
			{
				OFFSET 0.05594 2.14379 -0.03318
				CHANNELS 3 Zrotation Yrotation Xrotation
				JOINT lowerneck
				{
					OFFSET 0 0 0
					CHANNELS 3 Zrotation Yrotation Xrotation
					JOINT Neck
					{
						OFFSET -0.09835 1.62725 0.24211
						CHANNELS 3 Zrotation Yrotation Xrotation
						JOINT Head
						{
							OFFSET 0.10849 1.66041 -0.22648
							CHANNELS 3 Zrotation Yrotation Xrotation
							End Site
							{
								OFFSET 0.04385 1.68267 -0.10541
							}
						}
					}
				}
				JOINT LeftCollar
				{
					OFFSET 0 0 0
					CHANNELS 3 Zrotation Yrotation Xrotation
					JOINT LeftShoulder
					{
						OFFSET 3.29108 0.79398 -0.68179
CHANNELS 3 Zrotation Xrotation Yrotation
						JOINT LeftElbow
						{
OFFSET 0 -5.153100 -0.000000
CHANNELS 3 Zrotation Xrotation Yrotation
							JOINT LeftWrist
							{
OFFSET 0 -3.751380 -0.000000
CHANNELS 3 Zrotation Xrotation Yrotation
								JOINT lhand
								{
									OFFSET 0 0 0
CHANNELS 3 Zrotation Xrotation Yrotation
									JOINT LFingers
									{
OFFSET 0 -0.529170 0.000000
CHANNELS 3 Zrotation Xrotation Yrotation
										End Site
										{
OFFSET 0 -0.426630 0.000000
										}
									}
								}
								JOINT LThumb
								{
OFFSET 0 0.000000 0.000000
CHANNELS 3 Zrotation Xrotation Yrotation
									End Site
									{
OFFSET 0 -0.433150 0.433150
									}
								}
							}
						}
					}
				}
				JOINT RightCollar
				{
					OFFSET 0 0 0
					CHANNELS 3 Zrotation Yrotation Xrotation
					JOINT RightShoulder
					{
						OFFSET -3.07414 1.06285 -0.44338
CHANNELS 3 Zrotation Xrotation Yrotation
						JOINT RightElbow
						{
OFFSET 0 -5.296130 0.000000
CHANNELS 3 Zrotation Xrotation Yrotation
							JOINT RightWrist
							{
OFFSET 0 -3.761440 -0.000000
CHANNELS 3 Zrotation Xrotation Yrotation
								JOINT rhand
								{
									OFFSET 0 0 0
CHANNELS 3 Zrotation Xrotation Yrotation
									JOINT RFingers
									{
OFFSET 0 -0.747320 0.000000
CHANNELS 3 Zrotation Xrotation Yrotation
										End Site
										{
OFFSET 0 -0.602510 0.000000
										}
									}
								}
								JOINT RThumb
								{
OFFSET 0 0.000000 0.000000
CHANNELS 3 Zrotation Xrotation Yrotation
									End Site
									{
OFFSET 0 -0.611710 0.611710
									}
								}
							}
						}
					}
				}
			}
		}
	}
}
MOTION
Frames: 8
Frame Time: 0.008333333333333333
1.423700 16.882600 -33.815100 7.280400 5.491100 1.840200 0.000000 0.000000 0.000000 -30.043000 3.293300 16.519300 0.906200 6.066200 16.976600 -0.100500 -12.997700 -7.767100 0.247900 -3.203800 -8.846700 0.000000 0.000000 0.000000 11.049600 10.141800 -30.922000 -0.972300 -6.277600 17.591900 -0.035700 -2.965800 -5.836400 -0.355700 3.831900 -10.604200 -8.017000 -2.265400 7.381900 0.854200 -3.663700 0.109600 5.758900 -1.680100 -3.471500 -9.324200 -2.983700 -16.992400 4.076600 -2.547400 19.645700 2.616300 -1.448300 9.165400 0.000000 -0.000000 0.000000 7.437800 -8.642100 -25.033800 21.989700 -32.965400 6.580200 18.772700 7.490200 -24.766900 0.000000 0.000000 0.000000 -7.125000 0.000000 0.000000 -11.593900 55.582500 3.040700 0.000000 -0.000000 0.000000 1.974500 14.642300 -0.921000 -10.476600 -17.481600 -1.615200 -15.595800 15.900400 -13.920900 0.000000 0.000000 0.000000 7.125000 0.000000 -0.000000 8.085400 15.644500 5.662900
1.422014 16.893124 -33.674769 7.319633 5.557613 1.728477 0.000000 0.000000 0.000000 -30.032323 3.141577 16.855900 0.944412 6.187987 17.331233 -0.168852 -12.937266 -6.650992 0.349815 -3.759504 -10.405665 0.000000 0.000000 0.000000 10.896345 10.445297 -30.962051 -1.096386 -6.642961 18.665761 -0.015368 -2.898878 -4.794825 -0.308038 3.557726 -9.836646 -8.819548 -3.457727 7.935510 1.855213 -5.430837 -1.981213 7.614619 -2.314322 -5.530078 -11.473965 -1.095542 -10.232354 3.990624 -0.414646 18.143286 3.097522 -0.591909 7.316833 0.000000 0.000000 0.000000 5.443130 -3.443012 -21.387240 22.670461 -33.718395 6.958026 19.564622 8.067769 -24.420032 0.000000 0.000000 0.000000 -7.125000 0.000000 0.000000 -10.618327 55.390829 2.735773 0.000000 0.000000 0.000000 -1.355178 18.941574 3.590022 -10.521299 -17.550820 -1.628686 -15.275087 15.038645 -14.069456 0.000000 0.000000 0.000000 7.125000 0.000000 0.000000 8.304964 15.519239 5.843333
1.420311 16.903690 -33.534351 7.359032 5.628373 1.615675 0.000000 0.000000 0.000000 -30.022113 2.983697 17.175572 0.986341 6.320248 17.716821 -0.236720 -12.879880 -5.536943 0.454236 -4.319477 -11.977850 0.000000 0.000000 0.000000 10.737939 10.758768 -30.989264 -1.219122 -7.003254 19.725144 0.005044 -2.860001 -3.770026 -0.262543 3.296096 -9.104202 -9.658955 -4.625708 8.498315 2.866297 -7.168246 -3.992246 9.500255 -2.938546 -7.501434 -13.562851 0.741885 -3.795219 3.863642 1.683819 16.717769 3.552542 0.249829 5.553382 0.000000 0.000000 0.000000 3.441740 1.548905 -17.773218 23.331786 -34.449587 7.325195 20.334735 8.642527 -24.097028 0.000000 0.000000 0.000000 -7.125000 0.000000 0.000000 -9.675831 55.219002 2.444312 0.000000 0.000000 0.000000 -4.672152 23.039644 8.033076 -10.557096 -17.606231 -1.639508 -14.947471 14.196114 -14.188873 0.000000 0.000000 0.000000 7.125000 0.000000 0.000000 8.529298 15.424067 6.021343
1.418217 16.915236 -33.391977 7.402148 5.794859 1.478562 0.000000 0.000000 0.000000 -30.022420 2.687046 17.113708 1.112062 6.688572 18.800081 -0.293680 -12.891169 -4.469315 0.615155 -4.975666 -13.847975 0.000000 0.000000 0.000000 10.463459 11.297052 -30.727146 -1.311433 -7.249331 20.458215 0.027266 -3.453202 -3.123340 -0.265915 3.317194 -9.163104 -11.329133 -5.244962 9.268372 4.104345 -8.235619 -4.205169 12.060183 -3.337418 -7.506952 -14.279627 1.435928 -4.635978 2.812463 3.009478 17.025404 3.417013 0.761293 5.708324 0.000000 0.000000 0.000000 1.288910 1.871508 -14.892527 23.555079 -34.689381 7.452193 20.613302 9.153940 -24.311892 0.000000 0.000000 0.000000 -7.125000 0.000000 0.000000 -9.478847 55.494453 2.456368 0.000000 0.000000 0.000000 -7.702778 22.602866 10.944214 -10.392245 -17.350397 -1.590262 -14.464257 13.786871 -13.651559 0.000000 0.000000 0.000000 7.125000 0.000000 0.000000 8.861147 16.007051 6.144765
1.416035 16.927011 -33.249980 7.422649 5.959089 1.341441 0.000000 0.000000 0.000000 -29.999031 2.385433 17.043063 1.239332 7.057390 19.886363 -0.350197 -12.896391 -3.370144 0.771849 -5.607604 -15.650517 0.000000 0.000000 0.000000 10.223889 11.822020 -30.467312 -1.404299 -7.495257 21.191574 0.048216 -4.013792 -2.493377 -0.264768 3.307466 -9.136157 -12.796810 -5.792805 9.952252 5.207923 -9.176794 -4.377156 14.325920 -3.691210 -7.498032 -14.898549 2.044952 -5.416681 1.867350 4.182150 17.301657 3.290426 1.213618 5.853438 0.000000 0.000000 0.000000 -0.626309 2.122326 -12.326835 23.748106 -34.896707 7.561963 20.883835 9.661981 -24.593623 0.000000 0.000000 0.000000 -7.125000 0.000000 0.000000 -9.321727 55.836441 2.495058 0.000000 0.000000 0.000000 -10.376701 22.177526 13.453927 -10.229320 -17.097440 -1.541688 -14.019313 13.450541 -13.135602 0.000000 0.000000 0.000000 7.125000 0.000000 0.000000 9.166970 16.565319 6.254171
1.412919 16.941264 -33.112051 7.199611 6.099011 1.204227 0.000000 0.000000 0.000000 -29.720464 2.030391 16.877853 1.383290 7.431538 21.005178 -0.401946 -12.836264 -1.931279 0.883062 -5.978380 -16.725246 0.000000 0.000000 0.000000 10.360287 12.203575 -30.232065 -1.503149 -7.739546 21.928017 0.055470 -4.223190 -2.043521 -0.214960 2.965757 -8.184696 -12.083713 -5.571607 9.708065 4.863354 -8.758918 -4.108294 13.423449 -3.559513 -7.333640 -14.463661 1.738390 -5.550626 2.064488 3.707263 17.239946 3.260133 1.029047 5.892722 0.000000 0.000000 0.000000 0.017364 1.600083 -13.153443 23.615182 -34.754384 7.486204 21.067843 10.133701 -25.595454 0.000000 0.000000 0.000000 -7.125000 0.000000 0.000000 -9.593908 56.894976 2.820573 0.000000 0.000000 0.000000 -9.209201 21.875357 11.640609 -10.087150 -16.875475 -1.500361 -13.986517 13.899426 -12.849627 0.000000 0.000000 0.000000 7.125000 0.000000 0.000000 9.192513 16.857424 6.212639
1.410011 16.954852 -32.974778 6.966111 6.195382 1.068574 0.000000 0.000000 0.000000 -29.435705 1.700879 16.676255 1.532938 7.813310 22.150259 -0.450264 -12.765902 -0.464249 0.987425 -6.324089 -17.727985 0.000000 0.000000 0.000000 10.537800 12.547406 -30.009110 -1.600234 -7.977760 22.647024 0.059638 -4.329632 -1.536331 -0.170504 2.659741 -7.332702 -11.428633 -5.377200 9.510633 4.579589 -8.388694 -3.879547 12.639008 -3.441019 -7.208925 -14.092996 1.483752 -5.663834 2.233961 3.311508 17.196830 3.235497 0.875754 5.928263 0.000000 0.000000 0.000000 0.548718 1.162891 -13.806675 23.502618 -34.633872 7.422040 21.210808 10.584046 -26.548427 0.000000 0.000000 0.000000 -7.125000 0.000000 0.000000 -9.891873 57.894256 3.143580 0.000000 0.000000 0.000000 -8.208776 21.622189 10.047677 -9.956225 -16.671025 -1.462340 -13.951291 14.314930 -12.607913 0.000000 0.000000 0.000000 7.125000 0.000000 0.000000 9.219266 17.104839 6.181010
1.408530 16.963894 -32.842008 6.660979 5.993596 0.943620 0.000000 0.000000 0.000000 -29.108555 1.546142 16.225531 1.721544 8.247278 23.475152 -0.475092 -12.625469 1.195609 1.044895 -6.498187 -18.237866 0.000000 0.000000 0.000000 10.996800 12.632973 -29.870312 -1.685240 -8.174387 23.246662 0.042678 -3.731221 -0.636619 -0.162688 2.598082 -7.161669 -11.170755 -5.366217 9.633288 4.712104 -8.344710 -3.925421 12.662609 -3.412922 -7.355846 -14.162012 1.584594 -5.635073 2.214038 3.457509 17.281018 3.249596 0.936597 5.938174 0.000000 0.000000 0.000000 0.311121 1.307973 -13.272937 23.529438 -34.662684 7.437264 21.072776 10.888054 -27.166915 0.000000 0.000000 0.000000 -7.125000 0.000000 0.000000 -10.366352 58.487865 3.449427 0.000000 0.000000 0.000000 -8.352172 21.704487 9.963539 -9.902279 -16.586479 -1.446964 -13.899440 14.501901 -12.669215 0.000000 0.000000 0.000000 7.125000 0.000000 0.000000 9.254311 17.046295 6.217178
